<?xml version="1.0" encoding="UTF-8" standalone="no"?>
<svg
   xmlns:dc="http://purl.org/dc/elements/1.1/"
   xmlns:cc="http://creativecommons.org/ns#"
   xmlns:rdf="http://www.w3.org/1999/02/22-rdf-syntax-ns#"
   xmlns:svg="http://www.w3.org/2000/svg"
   xmlns="http://www.w3.org/2000/svg"
   xmlns:sodipodi="http://sodipodi.sourceforge.net/DTD/sodipodi-0.dtd"
   xmlns:inkscape="http://www.inkscape.org/namespaces/inkscape"
   version="1.1"
   x="0px"
   y="0px"
   viewBox="0 0 36.667969 27.968996"
   xml:space="preserve"
   id="svg8"
   sodipodi:docname="noun_Rheostat_1013492.svg"
   width="36.667969"
   height="27.968996"
   inkscape:version="1.0.1 (3bc2e813f5, 2020-09-07)"><metadata
     id="metadata14"><rdf:RDF><cc:Work
         rdf:about=""><dc:format>image/svg+xml</dc:format><dc:type
           rdf:resource="http://purl.org/dc/dcmitype/StillImage" /><dc:title></dc:title></cc:Work></rdf:RDF></metadata><defs
     id="defs12" /><sodipodi:namedview
     pagecolor="#ffffff"
     bordercolor="#666666"
     borderopacity="1"
     objecttolerance="10"
     gridtolerance="10"
     guidetolerance="10"
     inkscape:pageopacity="0"
     inkscape:pageshadow="2"
     inkscape:window-width="2560"
     inkscape:window-height="1377"
     id="namedview10"
     showgrid="false"
     inkscape:zoom="16.8"
     inkscape:cx="18.333984"
     inkscape:cy="12.855436"
     inkscape:window-x="-8"
     inkscape:window-y="-8"
     inkscape:window-maximized="1"
     inkscape:current-layer="svg8" /><path
     d="M 35.667968,12.998293 H 28 V 9.6643089 c 0,-0.552247 -0.447266,-1 -1,-1 h -7.653321 l -0.0078,-5.247559 1.323242,1.322754 c 0.390625,0.390625 1.023437,0.390625 1.414062,0 0.390625,-0.390625 0.390625,-1.023926 0,-1.414063 L 19.042004,0.29223787 c -4.89e-4,-4.88e-4 -4.89e-4,-4.88e-4 -9.77e-4,-9.76e-4 v 0 c -9.76e-4,-9.77e-4 -0.0029,-0.0015 -0.0039,-0.0029 -0.09131,-0.08984 -0.199219,-0.162109 -0.319336,-0.211914 -0.246094,-0.1025392 -0.523437,-0.1015626 -0.769043,9.77e-4 -0.0625,0.02637 -0.11084,0.07275 -0.166016,0.110351 -0.05176,0.03516 -0.109863,0.05762 -0.155761,0.103516 L 14.592303,3.3254709 c -0.390625,0.390137 -0.390625,1.023438 0,1.414063 0.195312,0.195312 0.451172,0.292969 0.707031,0.292969 0.255859,0 0.511719,-0.09766 0.707031,-0.292969 l 1.33252,-1.332031 0.0083,5.256836 H 9.6679864 c -0.552246,0 -1,0.447753 -1,1 V 12.998293 H 1 c -0.5522461,0 -1,0.447754 -1,1 0,0.552246 0.4477539,1 1,1 h 7.6679684 v 3.333984 c 0,0.552735 0.447754,1 1,1 h 7.6962886 l 0.01221,7.638672 c 9.77e-4,0.551758 0.448243,0.998047 1,0.998047 4.89e-4,0 9.77e-4,0 0.0015,0 0.552246,-9.76e-4 0.999024,-0.449219 0.998047,-1.001953 l -0.01172,-7.634766 h 7.635743 c 0.552734,0 1,-0.447265 1,-1 v -3.333984 h 7.667968 c 0.552735,0 1,-0.447754 1,-1 0,-0.552246 -0.447265,-1 -1,-1 z m -25,4.333984 v -6.667968 h 6.682618 l 0.01074,6.667968 z m 15.332032,0 h -6.639649 l -0.0098,-6.667968 h 6.649414 v 6.667968 z"
     id="path2" /></svg>
