<?xml version="1.0" encoding="UTF-8" standalone="no"?>
<svg
   xmlns:dc="http://purl.org/dc/elements/1.1/"
   xmlns:cc="http://creativecommons.org/ns#"
   xmlns:rdf="http://www.w3.org/1999/02/22-rdf-syntax-ns#"
   xmlns:svg="http://www.w3.org/2000/svg"
   xmlns="http://www.w3.org/2000/svg"
   xmlns:sodipodi="http://sodipodi.sourceforge.net/DTD/sodipodi-0.dtd"
   xmlns:inkscape="http://www.inkscape.org/namespaces/inkscape"
   data-name="Layer 105"
   viewBox="0 0 82 82.000092"
   x="0px"
   y="0px"
   version="1.1"
   id="svg34"
   sodipodi:docname="noun_solar battery_3431711.svg"
   width="82"
   height="82.000092"
   inkscape:version="1.0.1 (3bc2e813f5, 2020-09-07)">
  <metadata
     id="metadata40">
    <rdf:RDF>
      <cc:Work
         rdf:about="">
        <dc:format>image/svg+xml</dc:format>
        <dc:type
           rdf:resource="http://purl.org/dc/dcmitype/StillImage" />
        <dc:title>Solar Battery</dc:title>
      </cc:Work>
    </rdf:RDF>
  </metadata>
  <defs
     id="defs38" />
  <sodipodi:namedview
     pagecolor="#ffffff"
     bordercolor="#666666"
     borderopacity="1"
     objecttolerance="10"
     gridtolerance="10"
     guidetolerance="10"
     inkscape:pageopacity="0"
     inkscape:pageshadow="2"
     inkscape:window-width="2560"
     inkscape:window-height="1377"
     id="namedview36"
     showgrid="false"
     inkscape:zoom="5.7021091"
     inkscape:cx="52.053914"
     inkscape:cy="55.760094"
     inkscape:window-x="-8"
     inkscape:window-y="-8"
     inkscape:window-maximized="1"
     inkscape:current-layer="svg34" />
  <title
     id="title2">Solar Battery</title>
  <path
     d="m 77.14,43.08 h -60 a 4.87,4.87 0 0 0 -4.86,4.86 v 5.31 H 4 a 4,4 0 0 0 -4,4 v 10.5 a 4,4 0 0 0 4,4 h 8.27 v 5.32 a 4.87,4.87 0 0 0 4.9,4.93 h 60 A 4.87,4.87 0 0 0 82,77.14 V 47.94 A 4.87,4.87 0 0 0 77.14,43.08 Z M 80,77.14 A 2.86,2.86 0 0 1 77.14,80 h -60 a 2.86,2.86 0 0 1 -2.86,-2.86 v -29.2 a 2.86,2.86 0 0 1 2.86,-2.86 h 60 A 2.86,2.86 0 0 1 80,47.94 Z M 2,67.79 v -10.5 a 2,2 0 0 1 2,-2 h 8.27 V 69.82 H 4 A 2,2 0 0 1 2,67.79 Z"
     id="path4" />
  <path
     d="M 33.09,49.69 H 20.78 a 1,1 0 0 0 -1,1 v 23.69 a 1,1 0 0 0 1,1 h 12.31 a 1,1 0 0 0 1,-1 V 50.69 a 1,1 0 0 0 -1,-1 z m -1,23.69 H 21.78 V 51.69 h 10.31 z"
     id="path6" />
  <path
     d="m 53.92,49.69 h -12.3 a 1,1 0 0 0 -1,1 v 23.69 a 1,1 0 0 0 1,1 h 12.3 a 1,1 0 0 0 1,-1 V 50.69 a 1,1 0 0 0 -1,-1 z m -1,23.69 H 42.62 V 51.69 h 10.3 z"
     id="path8" />
  <path
     d="M 74.85,49.69 H 62.54 a 1,1 0 0 0 -1,1 v 23.69 a 1,1 0 0 0 1,1 h 12.31 a 1,1 0 0 0 1,-1 V 50.69 a 1,1 0 0 0 -1,-1 z m -1,23.69 H 63.54 V 51.69 h 10.31 z"
     id="path10" />
  <path
     d="M 48.77,18.54 A 7.77,7.77 0 1 0 41,26.31 7.78,7.78 0 0 0 48.77,18.54 Z M 41,24.31 A 5.77,5.77 0 1 1 46.77,18.54 5.78,5.78 0 0 1 41,24.31 Z"
     id="path12" />
  <path
     d="M 42,6.92 V 1 a 1,1 0 0 0 -2,0 v 5.92 a 1,1 0 1 0 2,0 z"
     id="path14" />
  <path
     d="M 40,30.08 V 36 a 1,1 0 0 0 2,0 v -5.92 a 1,1 0 0 0 -2,0 z"
     id="path16" />
  <path
     d="m 59.5,18.5 a 1,1 0 0 0 -1,-1 h -5.92 a 1,1 0 0 0 0,2 h 5.92 a 1,1 0 0 0 1,-1 z"
     id="path18" />
  <path
     d="m 22.5,18.5 a 1,1 0 0 0 1,1 h 5.92 a 1,1 0 0 0 0,-2 H 23.5 a 1,1 0 0 0 -1,1 z"
     id="path20" />
  <path
     d="M 49.9,11 54.08,6.81 A 1,1 0 0 0 52.67,5.4 l -4.19,4.2 a 1,1 0 0 0 0,1.42 1,1 0 0 0 0.71,0.29 A 1,1 0 0 0 49.9,11 Z"
     id="path22" />
  <path
     d="m 28.63,31.87 a 1,1 0 0 0 0.7,-0.29 L 33.52,27.4 A 1,1 0 0 0 32.1,26 l -4.18,4.19 a 1,1 0 0 0 0,1.41 1,1 0 0 0 0.71,0.27 z"
     id="path24" />
  <path
     d="m 52.67,31.58 a 1,1 0 0 0 1.41,0 1,1 0 0 0 0,-1.41 L 49.9,26 a 1.0040916,1.0040916 0 0 0 -1.42,1.42 z"
     id="path26" />
  <path
     d="m 32.81,11.31 a 1,1 0 0 0 0.71,-0.29 1,1 0 0 0 0,-1.42 L 29.33,5.42 A 1,1 0 0 0 27.92,6.83 L 32.1,11 a 1,1 0 0 0 0.71,0.31 z"
     id="path28" />
</svg>
