<?xml version="1.0" encoding="UTF-8" standalone="no"?>
<svg
   xmlns:dc="http://purl.org/dc/elements/1.1/"
   xmlns:cc="http://creativecommons.org/ns#"
   xmlns:rdf="http://www.w3.org/1999/02/22-rdf-syntax-ns#"
   xmlns:svg="http://www.w3.org/2000/svg"
   xmlns="http://www.w3.org/2000/svg"
   xmlns:sodipodi="http://sodipodi.sourceforge.net/DTD/sodipodi-0.dtd"
   xmlns:inkscape="http://www.inkscape.org/namespaces/inkscape"
   version="1.1"
   x="0px"
   y="0px"
   viewBox="0 0 41.709961 48"
   xml:space="preserve"
   id="svg10"
   sodipodi:docname="icon.svg"
   width="41.709961"
   height="48"
   inkscape:version="1.0.1 (3bc2e813f5, 2020-09-07)"><metadata
     id="metadata16"><rdf:RDF><cc:Work
         rdf:about=""><dc:format>image/svg+xml</dc:format><dc:type
           rdf:resource="http://purl.org/dc/dcmitype/StillImage" /><dc:title></dc:title></cc:Work></rdf:RDF></metadata><defs
     id="defs14" /><sodipodi:namedview
     pagecolor="#ffffff"
     bordercolor="#666666"
     borderopacity="1"
     objecttolerance="10"
     gridtolerance="10"
     guidetolerance="10"
     inkscape:pageopacity="0"
     inkscape:pageshadow="2"
     inkscape:window-width="2560"
     inkscape:window-height="1377"
     id="namedview12"
     showgrid="false"
     inkscape:zoom="14.4"
     inkscape:cx="20.854981"
     inkscape:cy="26.948256"
     inkscape:window-x="-8"
     inkscape:window-y="-8"
     inkscape:window-maximized="1"
     inkscape:current-layer="svg10" /><path
     d="m 29.961915,38.333984 c 0.552245,0 1,-0.447265 1,-1 V 1 c 0,-0.5527344 -0.447755,-1 -1,-1 H 1 C 0.4477539,0 0,0.4472656 0,1 v 36.333984 c 0,0.552735 0.4477539,1 1,1 h 7.5346685 v 4.340821 c 0,0.552734 0.447753,1 0.999999,1 H 20.427246 V 47 c 0,0.552734 0.447753,1 1,1 H 40.70996 c 0.552246,0 1,-0.447266 1,-1 V 15.061523 c 0,-0.552734 -0.447754,-1 -1,-1 -0.552246,0 -1,0.447266 -1,1 V 46 H 22.427246 v -2.325195 h 12.257812 c 0.552246,0 1,-0.447266 1,-1 V 15.061523 c 0,-0.552734 -0.447754,-1 -1,-1 -0.552246,0 -1,0.447266 -1,1 V 41.674805 H 22.427246 V 38.333984 Z M 9.5346675,29.625977 c -0.552246,0 -0.999999,0.447265 -0.999999,1 v 1.446472 c -0.458924,-0.318176 -0.761231,-0.847168 -0.761231,-1.446472 0,-0.97168 0.790039,-1.761719 1.76123,-1.761719 0.9711925,0 1.7612315,0.790039 1.7612315,1.761719 0,0.599304 -0.302307,1.128295 -0.761231,1.446472 v -1.446472 c 0,-0.552735 -0.447753,-1 -1.0000005,-1 z M 20.427246,41.674805 h -9.892578 v -3.340821 h 9.892578 z m 0,-5.340821 h -9.892578 v -2.099426 c 1.58667,-0.441284 2.761231,-1.883728 2.761231,-3.608581 0,-2.074219 -1.6875,-3.761719 -3.7612315,-3.761719 -2.07373,0 -3.76123,1.6875 -3.76123,3.761719 0,1.724853 1.174561,3.167297 2.761231,3.608581 v 2.099426 H 2 V 2 h 26.961915 v 34.333984 h -6.534668 v -2.099426 c 1.58667,-0.441284 2.76123,-1.883728 2.76123,-3.608581 0,-2.074219 -1.6875,-3.761719 -3.76123,-3.761719 -2.073731,0 -3.761231,1.6875 -3.761231,3.761719 0,1.724853 1.174561,3.167297 2.761231,3.608581 z m 1,-6.708007 c -0.552247,0 -1,0.447265 -1,1 v 1.446472 c -0.458924,-0.318176 -0.761231,-0.847168 -0.761231,-1.446472 0,-0.97168 0.790039,-1.761719 1.761231,-1.761719 0.971191,0 1.76123,0.790039 1.76123,1.761719 0,0.599304 -0.302307,1.128295 -0.76123,1.446472 v -1.446472 c 0,-0.552735 -0.447754,-1 -1,-1 z"
     id="path2" /><path
     d="m 25.961425,18.457031 c 0.552246,0 1,-0.447265 1,-1 V 5 c 0,-0.5527344 -0.447754,-1 -1,-1 H 4.9951175 c -0.552246,0 -1,0.4472656 -1,1 v 12.457031 c 0,0.552735 0.447754,1 1,1 h 7.2133785 6.548339 z m -12.527831,-2 c 0.02441,-0.0498 0.05029,-0.09863 0.07861,-0.146484 0.635253,-1.083008 2.032226,-1.448242 3.117674,-0.817383 0.39258,0.227539 0.701172,0.566406 0.895508,0.963867 z M 21.049316,7.916992 C 20.572753,7.637695 19.95996,7.798828 19.68164,8.276367 l -2.975525,5.097229 c -1.846191,-0.552002 -3.903808,0.191284 -4.92047,1.927185 -0.212647,0.364441 -0.362976,0.754944 -0.458862,1.15625 H 5.9951175 V 6 H 24.961425 v 10.457031 h -5.329772 c -0.192078,-0.794677 -0.606812,-1.517822 -1.194275,-2.08197 L 21.409179,9.28418 C 21.6875,8.807617 21.526367,8.195313 21.049316,7.916992 Z"
     id="path4" /></svg>
