<?xml version="1.0" encoding="UTF-8" standalone="no"?>
<svg
   xmlns:dc="http://purl.org/dc/elements/1.1/"
   xmlns:cc="http://creativecommons.org/ns#"
   xmlns:rdf="http://www.w3.org/1999/02/22-rdf-syntax-ns#"
   xmlns:svg="http://www.w3.org/2000/svg"
   xmlns="http://www.w3.org/2000/svg"
   xmlns:sodipodi="http://sodipodi.sourceforge.net/DTD/sodipodi-0.dtd"
   xmlns:inkscape="http://www.inkscape.org/namespaces/inkscape"
   viewBox="0 0 68 62"
   x="0px"
   y="0px"
   version="1.1"
   id="svg8"
   sodipodi:docname="frequency.svg"
   width="68"
   height="62"
   inkscape:version="1.0.1 (3bc2e813f5, 2020-09-07)">
  <metadata
     id="metadata14">
    <rdf:RDF>
      <cc:Work
         rdf:about="">
        <dc:format>image/svg+xml</dc:format>
        <dc:type
           rdf:resource="http://purl.org/dc/dcmitype/StillImage" />
        <dc:title></dc:title>
      </cc:Work>
    </rdf:RDF>
  </metadata>
  <defs
     id="defs12" />
  <sodipodi:namedview
     pagecolor="#ffffff"
     bordercolor="#666666"
     borderopacity="1"
     objecttolerance="10"
     gridtolerance="10"
     guidetolerance="10"
     inkscape:pageopacity="0"
     inkscape:pageshadow="2"
     inkscape:window-width="2560"
     inkscape:window-height="1377"
     id="namedview10"
     showgrid="false"
     inkscape:zoom="13.006452"
     inkscape:cx="34"
     inkscape:cy="38.75"
     inkscape:window-x="-8"
     inkscape:window-y="-8"
     inkscape:window-maximized="1"
     inkscape:current-layer="svg8" />
  <path
     fill="#000000"
     d="M 4,48.6923 V 54 c 0,2.2091 1.79086,4 4,4 h 58 c 1.10457,0 2,0.8954 2,2 0,1.1046 -0.89543,2 -2,2 H 8 C 3.58172,62 0,58.4183 0,54 V 2 C 0,0.8954 0.89543,0 2,0 3.10457,0 4,0.8954 4,2 V 27 H 9.91944 C 11.30329,21.2155 12.06538,18.5649 13.24116,15.8341 15.12122,11.4675 17.55444,9 21,9 c 3.44556,0 5.87878,2.4675 7.75884,6.8341 1.17578,2.7308 1.93787,5.3814 3.32172,11.1659 H 47.91944 C 49.30329,21.2155 50.06538,18.5649 51.24116,15.8341 53.12122,11.4675 55.55444,9 59,9 c 1.10457,0 2,0.8954 2,2 0,1.1046 -0.89543,2 -2,2 -2.6338,0 -4.41408,3.7033 -6.95993,14 H 62 c 1.10457,0 2,0.8954 2,2 0,1.1046 -0.89543,2 -2,2 H 51.08056 C 49.69671,36.7845 48.93462,39.4351 47.75884,42.1659 45.87878,46.5325 43.44556,49 40,49 36.55444,49 34.12122,46.5325 32.24116,42.1659 31.06538,39.4351 30.30329,36.7845 28.91944,31 H 13.08056 C 11.69671,36.7845 10.93462,39.4351 9.75884,42.1659 8.26515,45.6351 6.4223,47.9056 4,48.6923 Z M 4,44.1124 C 5.66336,42.4853 7.1094,38.4845 8.95993,31 H 4 Z M 33.04007,31 C 35.58592,41.2967 37.3662,45 40,45 c 2.6338,0 4.41408,-3.7033 6.95993,-14 z M 27.95993,27 C 25.41408,16.7033 23.6338,13 21,13 c -2.6338,0 -4.41408,3.7033 -6.95993,14 z"
     id="path2" />
</svg>
