<?xml version="1.0" encoding="UTF-8" standalone="no"?>
<svg
   xmlns:dc="http://purl.org/dc/elements/1.1/"
   xmlns:cc="http://creativecommons.org/ns#"
   xmlns:rdf="http://www.w3.org/1999/02/22-rdf-syntax-ns#"
   xmlns:svg="http://www.w3.org/2000/svg"
   xmlns="http://www.w3.org/2000/svg"
   xmlns:sodipodi="http://sodipodi.sourceforge.net/DTD/sodipodi-0.dtd"
   xmlns:inkscape="http://www.inkscape.org/namespaces/inkscape"
   version="1.1"
   x="0px"
   y="0px"
   viewBox="0 0 22 22"
   xml:space="preserve"
   id="svg12"
   sodipodi:docname="noun_Information_3387982.svg"
   width="22"
   height="22"
   inkscape:version="1.0.1 (3bc2e813f5, 2020-09-07)"><metadata
     id="metadata18"><rdf:RDF><cc:Work
         rdf:about=""><dc:format>image/svg+xml</dc:format><dc:type
           rdf:resource="http://purl.org/dc/dcmitype/StillImage" /><dc:title></dc:title></cc:Work></rdf:RDF></metadata><defs
     id="defs16" /><sodipodi:namedview
     pagecolor="#ffffff"
     bordercolor="#666666"
     borderopacity="1"
     objecttolerance="10"
     gridtolerance="10"
     guidetolerance="10"
     inkscape:pageopacity="0"
     inkscape:pageshadow="2"
     inkscape:window-width="2560"
     inkscape:window-height="1377"
     id="namedview14"
     showgrid="false"
     inkscape:zoom="11.879394"
     inkscape:cx="37.206539"
     inkscape:cy="-4.4508475"
     inkscape:window-x="-8"
     inkscape:window-y="-8"
     inkscape:window-maximized="1"
     inkscape:current-layer="svg12" /><path
     d="M 11,0 C 4.935,0 0,4.935 0,11 0,17.065 4.935,22 11,22 17.065,22 22,17.065 22,11 22,4.935 17.065,0 11,0 Z m 0,20 C 6.038,20 2,15.962 2,11 2,6.038 6.038,2 11,2 c 4.962,0 9,4.038 9,9 0,4.962 -4.038,9 -9,9 z"
     id="path2" /><path
     d="m 11,8 c -0.552,0 -1,0.448 -1,1 v 7 c 0,0.552 0.448,1 1,1 0.552,0 1,-0.448 1,-1 V 9 C 12,8.448 11.552,8 11,8 Z"
     id="path4" /><circle
     cx="11"
     cy="6"
     r="1"
     id="circle6" /></svg>
