<?xml version="1.0" encoding="UTF-8" standalone="no"?>
<svg
   xmlns:dc="http://purl.org/dc/elements/1.1/"
   xmlns:cc="http://creativecommons.org/ns#"
   xmlns:rdf="http://www.w3.org/1999/02/22-rdf-syntax-ns#"
   xmlns:svg="http://www.w3.org/2000/svg"
   xmlns="http://www.w3.org/2000/svg"
   xmlns:sodipodi="http://sodipodi.sourceforge.net/DTD/sodipodi-0.dtd"
   xmlns:inkscape="http://www.inkscape.org/namespaces/inkscape"
   version="1.1"
   x="0px"
   y="0px"
   viewBox="0 0 86.727959 87"
   enable-background="new 0 0 100 100"
   xml:space="preserve"
   id="svg18"
   sodipodi:docname="savings.svg"
   width="86.727959"
   height="87"
   inkscape:version="1.0.1 (3bc2e813f5, 2020-09-07)"><metadata
     id="metadata24"><rdf:RDF><cc:Work
         rdf:about=""><dc:format>image/svg+xml</dc:format><dc:type
           rdf:resource="http://purl.org/dc/dcmitype/StillImage" /><dc:title></dc:title></cc:Work></rdf:RDF></metadata><defs
     id="defs22" /><sodipodi:namedview
     pagecolor="#ffffff"
     bordercolor="#666666"
     borderopacity="1"
     objecttolerance="10"
     gridtolerance="10"
     guidetolerance="10"
     inkscape:pageopacity="0"
     inkscape:pageshadow="2"
     inkscape:window-width="2560"
     inkscape:window-height="1377"
     id="namedview20"
     showgrid="false"
     inkscape:zoom="5.7021091"
     inkscape:cx="64.040171"
     inkscape:cy="66.721019"
     inkscape:window-x="-8"
     inkscape:window-y="-8"
     inkscape:window-maximized="1"
     inkscape:current-layer="svg18" /><path
     d="m 54.727956,32 c -0.2,0 -0.4,0 -0.6,-0.1 -3.6,-1.2 -8.2,-1.9 -12.9,-1.9 -4.7,0 -9.3,0.7 -12.9,1.9 -1,0.4 -2.2,-0.2 -2.5,-1.2 -0.4,-1 0.2,-2.2 1.2,-2.5 4,-1.4 8.9,-2.1 14.1,-2.1 5.2,0 10.1,0.7 14.1,2.1 1,0.4 1.6,1.5 1.2,2.5 -0.1,0.8 -0.9,1.3 -1.7,1.3 z"
     id="path2" /><path
     d="m 10.927956,34.9 c -0.2,0 -0.3,0 -0.5,-0.1 -3.3000004,-0.9 -6.7000004,-2.7 -9.70000041,-5.2 -0.8,-0.7 -1,-2 -0.3,-2.8 0.70000001,-0.9 2.00000001,-1 2.80000001,-0.3 2.6,2.1 5.5,3.7 8.2000004,4.5 1.1,0.3 1.7,1.4 1.4,2.4 -0.2,0.9 -1.1,1.5 -1.9,1.5 z"
     id="path4" /><path
     d="m 65.727956,87 h -13 c -0.8,0 -1.6,-0.5 -1.9,-1.3 l -1.3,-3.5 c -2.7,0.5 -5.5,0.8 -8.3,0.8 -4.4,0 -8.7,-0.6 -12.8,-1.9 l -1.8,4.6 c -0.3,0.8 -1,1.3 -1.9,1.3 h -13 c -1,0 -1.9000004,-0.8 -2.0000004,-1.8 l -1.8,-18.5 c -3.4,-5 -5.2,-10.7 -5.2,-16.6 0,-13.8 10.2000004,-26.3 25.4000004,-30.9 1.1,-0.3 2.2,0.3 2.5,1.3 0.3,1.1 -0.3,2.2 -1.3,2.5 -13.5,4.2 -22.6000004,15.1 -22.6000004,27.1 0,5.2 1.7,10.3 4.8000004,14.7 0.2,0.3 0.3,0.6 0.4,1 l 1.6,17.2 h 9.8 l 2,-5.1 c 0.4,-1 1.5,-1.5 2.5,-1.1 4.2,1.5 8.7,2.2 13.3,2.2 3.1,0 6.2,-0.3 9.1,-1 1,-0.2 2,0.3 2.3,1.2 l 1.4,3.8 h 9.9 l 1.6,-11.7 c 0.1,-0.5 0.3,-0.9 0.7,-1.2 4.1,-3.6 7,-8 8.5,-12.8 0.2,-0.7 0.8,-1.2 1.5,-1.4 l 6.6,-1.5 V 45 h -6 c -0.9,0 -1.7,-0.6 -1.9,-1.5 -1.4,-5.1 -4.5,-9.8 -8.9,-13.6 -0.7,-0.6 -0.9,-1.6 -0.5,-2.5 l 4.2,-7.8 c -2.8,-0.3 -7.6,-0.1 -11.2,3.9 -0.6,0.6 -1.5,0.8 -2.2,0.5 -3.5,-1.4 -7.1,-2.3 -11,-2.7 -1.1,-0.1 -1.9,-1.1 -1.8,-2.2 0.1,-1.1 1.1,-1.9 2.2,-1.8 3.7,0.4 7.4,1.2 10.8,2.5 7.1,-6.7 16.5,-3.7 16.9,-3.5 0.6,0.2 1,0.6 1.2,1.2 0.2,0.6 0.2,1.2 -0.1,1.7 l -4.7,8.8 c 4,3.7 6.9,8.2 8.5,13 h 6.5 c 1.1,0 2,0.9 2,2 v 13 c 0,0.9 -0.7,1.7 -1.6,2 l -7,1.6 c -1.7,4.8 -4.7,9.3 -8.7,13 l -1.7,12.7 c -0.2,1 -1,1.7 -2,1.7 z"
     id="path6" /><path
     d="m 61.727956,50 c -3.3,0 -6,-2.7 -6,-6 0,-3.3 2.7,-6 6,-6 3.3,0 6,2.7 6,6 0,3.3 -2.7,6 -6,6 z m 0,-8 c -1.1,0 -2,0.9 -2,2 0,1.1 0.9,2 2,2 1.1,0 2,-0.9 2,-2 0,-1.1 -0.9,-2 -2,-2 z"
     id="path8" /><path
     d="m 32.727956,30.7 c -0.4,0 -0.7,-0.1 -1.1,-0.3 -3.1,-1.9 -5,-5.3 -5,-8.9 0.1,-5.8 4.8,-10.5 10.6,-10.5 5.8,0 10.5,4.7 10.5,10.5 0,2.8 -1.1,5.4 -3.1,7.4 -0.8,0.8 -2,0.8 -2.8,0 -0.8,-0.8 -0.8,-2 0,-2.8 1.2,-1.2 1.9,-2.9 1.9,-4.6 0,-3.6 -2.9,-6.5 -6.5,-6.5 -3.6,0 -6.5,2.9 -6.5,6.5 0,2.3 1.2,4.3 3.1,5.5 0.9,0.6 1.2,1.8 0.6,2.8 -0.4,0.6 -1,0.9 -1.7,0.9 z"
     id="path10" /><path
     d="m 45.327956,20.9 c -1,0 -1.8,-0.7 -2,-1.7 -0.1,-1.1 0.6,-2.1 1.7,-2.2 3.2,-0.4 5.7,-3.2 5.7,-6.4 0,-3.6 -2.9,-6.5 -6.5,-6.5 -3.6,0 -6.5,2.8 -6.5,6.4 0,0.7 0.1,1.3 0.3,2 0.3,1.1 -0.2,2.2 -1.3,2.5 -1,0.3 -2.2,-0.2 -2.5,-1.3 -0.3,-1 -0.5,-2.1 -0.5,-3.2 0,-5.8 4.7,-10.5 10.5,-10.5 5.8,0 10.5,4.7 10.5,10.5 0,5.3 -3.9,9.7 -9.1,10.4 -0.1,0 -0.2,0 -0.3,0 z"
     id="path12" /></svg>
