<?xml version="1.0" encoding="UTF-8" standalone="no"?>
<svg
   xmlns:dc="http://purl.org/dc/elements/1.1/"
   xmlns:cc="http://creativecommons.org/ns#"
   xmlns:rdf="http://www.w3.org/1999/02/22-rdf-syntax-ns#"
   xmlns:svg="http://www.w3.org/2000/svg"
   xmlns="http://www.w3.org/2000/svg"
   xmlns:sodipodi="http://sodipodi.sourceforge.net/DTD/sodipodi-0.dtd"
   xmlns:inkscape="http://www.inkscape.org/namespaces/inkscape"
   version="1.1"
   x="0px"
   y="0px"
   viewBox="0 0 56.897999 67.960533"
   enable-background="new 0 0 100 100"
   xml:space="preserve"
   id="svg12"
   sodipodi:docname="selfconsumption.svg"
   width="56.897999"
   height="67.960533"
   inkscape:version="1.0.1 (3bc2e813f5, 2020-09-07)"><metadata
     id="metadata18"><rdf:RDF><cc:Work
         rdf:about=""><dc:format>image/svg+xml</dc:format><dc:type
           rdf:resource="http://purl.org/dc/dcmitype/StillImage" /><dc:title></dc:title></cc:Work></rdf:RDF></metadata><defs
     id="defs16" /><sodipodi:namedview
     pagecolor="#ffffff"
     bordercolor="#666666"
     borderopacity="1"
     objecttolerance="10"
     gridtolerance="10"
     guidetolerance="10"
     inkscape:pageopacity="0"
     inkscape:pageshadow="2"
     inkscape:window-width="2560"
     inkscape:window-height="1377"
     id="namedview14"
     showgrid="false"
     inkscape:zoom="4.032"
     inkscape:cx="110.26159"
     inkscape:cy="62.091538"
     inkscape:window-x="-8"
     inkscape:window-y="-8"
     inkscape:window-maximized="1"
     inkscape:current-layer="svg12" /><path
     d="m 8.338492,51.436865 c 0.24,0.103 0.489,0.15 0.738,0.15 0.577,0 1.137,-0.267 1.5,-0.751 l 20.5,-27.334 c 0.427,-0.568 0.494,-1.329 0.178,-1.963 -0.319,-0.634 -0.967,-1.036 -1.677,-1.036 h -8.036 l 3.052,-18.3179988 c 0.143,-0.853 -0.317,-1.69200103 -1.111,-2.03200103 -0.797,-0.344 -1.719,-0.092 -2.238,0.601 l -20.5,27.33399983 c -0.427,0.568 -0.494,1.329 -0.178,1.963 0.319,0.634 0.9670001,1.036 1.6770001,1.036 h 8.0369999 l -3.053,18.317 c -0.143,0.854 0.316,1.692 1.111,2.033 z m -2.345,-24.1 13.638,-18.1819988 -2.154,12.9149988 c -0.092,0.542 0.062,1.099 0.419,1.52 0.355,0.421 0.879,0.663 1.43,0.663 h 6.5 l -13.637,18.182 2.153,-12.916 c 0.092,-0.542 -0.062,-1.099 -0.419,-1.52 -0.355,-0.421 -0.879,-0.663 -1.43,-0.663 h -6.5 z"
     id="path2" /><path
     d="m 42.448,25.271532 c -0.732,-0.732 -1.919,-0.732 -2.651,0 l -7.942,7.947 c -1.018,-0.555 -2.166,-0.897 -3.403,-0.897 -3.964,0 -7.191,3.226 -7.191,7.189 0,3.963 3.226,7.189 7.191,7.189 3.962,0 7.189,-3.226 7.189,-7.189 0,-1.362 -0.403,-2.624 -1.064,-3.712 l 7.872,-7.875 c 0.731,-0.733 0.731,-1.92 -10e-4,-2.652 z m -13.997,17.677 c -1.897,0 -3.441,-1.542 -3.441,-3.439 0,-1.897 1.544,-3.439 3.441,-3.439 1.897,0 3.439,1.542 3.439,3.439 0,1.897 -1.542,3.439 -3.439,3.439 z"
     id="path4" /><path
     d="m 28.451,11.058532 c -1.036,0 -1.875,0.839 -1.875,1.875 v 5.317 c 0,1.036 0.839,1.875 1.875,1.875 1.036,0 1.875,-0.839 1.875,-1.875 v -3.347 c 12.123,0.917 21.81,10.607 22.727,22.731 h -3.344 c -1.036,0 -1.875,0.839 -1.875,1.875 0,1.036 0.839,1.875 1.875,1.875 h 3.344 c -0.917,12.124 -10.604,21.814 -22.727,22.731 v -3.347 c 0,-1.036 -0.839,-1.875 -1.875,-1.875 -1.036,0 -1.875,0.839 -1.875,1.875 v 3.347 c -12.123,-0.917 -21.813,-10.607 -22.731,-22.731 h 3.346 c 1.036,0 1.875,-0.839 1.875,-1.875 0,-1.036 -0.839,-1.875 -1.875,-1.875 H 1.875 c -1.036,0 -1.875,0.839 -1.875,1.875 0,15.688 12.762,28.451 28.451,28.451 15.685,0 28.447,-12.762 28.447,-28.451 0,-15.689 -12.762,-28.451 -28.447,-28.451 z"
     id="path6" /></svg>
