<?xml version="1.0" encoding="UTF-8" standalone="no"?>
<svg
   xmlns:dc="http://purl.org/dc/elements/1.1/"
   xmlns:cc="http://creativecommons.org/ns#"
   xmlns:rdf="http://www.w3.org/1999/02/22-rdf-syntax-ns#"
   xmlns:svg="http://www.w3.org/2000/svg"
   xmlns="http://www.w3.org/2000/svg"
   xmlns:sodipodi="http://sodipodi.sourceforge.net/DTD/sodipodi-0.dtd"
   xmlns:inkscape="http://www.inkscape.org/namespaces/inkscape"
   viewBox="0 0 68 68"
   x="0px"
   y="0px"
   version="1.1"
   id="svg8"
   sodipodi:docname="icon.svg"
   width="68"
   height="68"
   inkscape:version="1.0.1 (3bc2e813f5, 2020-09-07)">
  <metadata
     id="metadata14">
    <rdf:RDF>
      <cc:Work
         rdf:about="">
        <dc:format>image/svg+xml</dc:format>
        <dc:type
           rdf:resource="http://purl.org/dc/dcmitype/StillImage" />
        <dc:title></dc:title>
      </cc:Work>
    </rdf:RDF>
  </metadata>
  <defs
     id="defs12" />
  <sodipodi:namedview
     pagecolor="#ffffff"
     bordercolor="#666666"
     borderopacity="1"
     objecttolerance="10"
     gridtolerance="10"
     guidetolerance="10"
     inkscape:pageopacity="0"
     inkscape:pageshadow="2"
     inkscape:window-width="2560"
     inkscape:window-height="1377"
     id="namedview10"
     showgrid="false"
     inkscape:zoom="11.858824"
     inkscape:cx="34"
     inkscape:cy="42.5"
     inkscape:window-x="-8"
     inkscape:window-y="-8"
     inkscape:window-maximized="1"
     inkscape:current-layer="svg8" />
  <path
     fill="#000000"
     d="M 26.380096,38.79148 C 25.505817,37.40403 25,35.76108 25,34 c 0,-1.76108 0.505817,-3.40403 1.380096,-4.79148 L 13.791477,16.6199 C 12.404028,17.49418 10.761084,18 9,18 4.029437,18 0,13.97056 0,9 0,4.02944 4.029437,0 9,0 c 4.970563,0 9,4.02944 9,9 0,1.76108 -0.505817,3.40403 -1.380096,4.79148 L 29.208523,26.3801 C 30.595972,25.50582 32.238916,25 34,25 c 1.761084,0 3.404028,0.50582 4.791477,1.3801 L 51.3801,13.79148 C 50.50582,12.40403 50,10.76108 50,9 c 0,-4.97056 4.02944,-9 9,-9 4.97056,0 9,4.02944 9,9 0,4.97056 -4.02944,9 -9,9 -1.76108,0 -3.40403,-0.50582 -4.79148,-1.3801 L 41.619904,29.20852 C 42.494183,30.59597 43,32.23892 43,34 c 0,1.76108 -0.505817,3.40403 -1.380096,4.79148 L 54.20852,51.3801 C 55.59597,50.50582 57.23892,50 59,50 c 4.97056,0 9,4.02944 9,9 0,4.97056 -4.02944,9 -9,9 -4.97056,0 -9,-4.02944 -9,-9 0,-1.76108 0.50582,-3.40403 1.3801,-4.79148 L 38.791477,41.6199 C 37.404028,42.49418 35.761084,43 34,43 32.238916,43 30.595972,42.49418 29.208523,41.6199 L 16.619904,54.20852 C 17.494183,55.59597 18,57.23892 18,59 c 0,4.97056 -4.029437,9 -9,9 -4.970563,0 -9,-4.02944 -9,-9 0,-4.97056 4.029437,-9 9,-9 1.761084,0 3.404028,0.50582 4.791477,1.3801 z M 34,39 c 2.761424,0 5,-2.23858 5,-5 0,-2.76142 -2.238576,-5 -5,-5 -2.761424,0 -5,2.23858 -5,5 0,2.76142 2.238576,5 5,5 z M 9,64 c 2.761424,0 5,-2.23858 5,-5 0,-2.76142 -2.238576,-5 -5,-5 -2.761424,0 -5,2.23858 -5,5 0,2.76142 2.238576,5 5,5 z M 9,14 c 2.761424,0 5,-2.23858 5,-5 C 14,6.23858 11.761424,4 9,4 6.238576,4 4,6.23858 4,9 c 0,2.76142 2.238576,5 5,5 z m 50,0 c 2.76142,0 5,-2.23858 5,-5 0,-2.76142 -2.23858,-5 -5,-5 -2.76142,0 -5,2.23858 -5,5 0,2.76142 2.23858,5 5,5 z m 0,50 c 2.76142,0 5,-2.23858 5,-5 0,-2.76142 -2.23858,-5 -5,-5 -2.76142,0 -5,2.23858 -5,5 0,2.76142 2.23858,5 5,5 z"
     id="path2" />
</svg>
